General
Complete name                            : ../.././Samples/ton_bug_1999.mpg
Format                                   : MPEG Video
Format version                           : Version 1
File size                                : 2.12 MiB
Duration                                 : 12 s 512 ms
Overall bit rate mode                    : Constant
Overall bit rate                         : 1 418 kb/s
FileExtension_Invalid                    : mpgv mpv mp1v m1v mp2v m2v

Video
Format                                   : MPEG Video
Format version                           : Version 1
Format settings                          : BVOP
Format settings, BVOP                    : Yes
Format settings, Matrix                  : Default
Format settings, GOP                     : M=4, N=16
Duration                                 : 12 s 512 ms
Bit rate mode                            : Constant
Bit rate                                 : 1 418 kb/s
Maximum bit rate                         : 1 158 kb/s
Width                                    : 320 pixels
Height                                   : 240 pixels
Display aspect ratio                     : 4:3
Frame rate                               : 23.976 (24000/1001) FPS
Color space                              : YUV
Chroma subsampling                       : 4:2:0
Bit depth                                : 8 bits
Scan type                                : Progressive
Compression mode                         : Lossy
Bits/(Pixel*Frame)                       : 0.770
Time code of first frame                 : 00:00:00:00
GOP, Open/Closed                         : Open
Stream size                              : 2.12 MiB (100%)


General
Complete name                            : ../.././Samples/ton_bug_1999.mpg
Format                                   : MPEG Video
Format version                           : Version 1
File size                                : 2.12 MiB
Duration                                 : 12 s 512 ms
Overall bit rate mode                    : Constant
Overall bit rate                         : 1 418 kb/s
FileExtension_Invalid                    : mpgv mpv mp1v m1v mp2v m2v

Video
Format                                   : MPEG Video
Format version                           : Version 1
Format settings                          : BVOP
Format settings, BVOP                    : Yes
Format settings, Matrix                  : Default
Format settings, GOP                     : M=4, N=16
Duration                                 : 12 s 512 ms
Bit rate mode                            : Constant
Bit rate                                 : 1 418 kb/s
Maximum bit rate                         : 1 158 kb/s
Width                                    : 320 pixels
Height                                   : 240 pixels
Display aspect ratio                     : 4:3
Frame rate                               : 23.976 (24000/1001) FPS
Color space                              : YUV
Chroma subsampling                       : 4:2:0
Bit depth                                : 8 bits
Scan type                                : Progressive
Compression mode                         : Lossy
Bits/(Pixel*Frame)                       : 0.770
Time code of first frame                 : 00:00:00:00
GOP, Open/Closed                         : Open
Stream size                              : 2.12 MiB (100%)


